MFEM mesh v1.0

dimension
3

elements
80
1 5 0 9 12 3 1 10 13 4
1 5 1 10 13 4 2 11 14 5
1 5 3 12 15 6 4 13 16 7
1 5 4 13 16 7 5 14 17 8
1 5 9 18 21 12 10 19 22 13
1 5 10 19 22 13 11 20 23 14
1 5 12 21 24 15 13 22 25 16
1 5 13 22 25 16 14 23 26 17
1 5 18 27 30 21 19 28 31 22
1 5 19 28 31 22 20 29 32 23
1 5 21 30 33 24 22 31 34 25
1 5 22 31 34 25 23 32 35 26
1 5 27 36 39 30 28 37 40 31
1 5 28 37 40 31 29 38 41 32
1 5 30 39 42 33 31 40 43 34
1 5 31 40 43 34 32 41 44 35
1 5 36 45 48 39 37 46 49 40
1 5 37 46 49 40 38 47 50 41
1 5 39 48 51 42 40 49 52 43
1 5 40 49 52 43 41 50 53 44
1 5 45 54 57 48 46 55 58 49
1 5 46 55 58 49 47 56 59 50
1 5 48 57 60 51 49 58 61 52
1 5 49 58 61 52 50 59 62 53
1 5 54 63 66 57 55 64 67 58
1 5 55 64 67 58 56 65 68 59
1 5 57 66 69 60 58 67 70 61
1 5 58 67 70 61 59 68 71 62
1 5 63 72 75 66 64 73 76 67
1 5 64 73 76 67 65 74 77 68
1 5 66 75 78 69 67 76 79 70
1 5 67 76 79 70 68 77 80 71
1 5 72 81 84 75 73 82 85 76
1 5 73 82 85 76 74 83 86 77
1 5 75 84 87 78 76 85 88 79
1 5 76 85 88 79 77 86 89 80
1 5 81 90 93 84 82 91 94 85
1 5 82 91 94 85 83 92 95 86
1 5 84 93 96 87 85 94 97 88
1 5 85 94 97 88 86 95 98 89
1 5 90 99 102 93 91 100 103 94
1 5 91 100 103 94 92 101 104 95
1 5 93 102 105 96 94 103 106 97
1 5 94 103 106 97 95 104 107 98
1 5 99 108 111 102 100 109 112 103
1 5 100 109 112 103 101 110 113 104
1 5 102 111 114 105 103 112 115 106
1 5 103 112 115 106 104 113 116 107
1 5 108 117 120 111 109 118 121 112
1 5 109 118 121 112 110 119 122 113
1 5 111 120 123 114 112 121 124 115
1 5 112 121 124 115 113 122 125 116
1 5 117 126 129 120 118 127 130 121
1 5 118 127 130 121 119 128 131 122
1 5 120 129 132 123 121 130 133 124
1 5 121 130 133 124 122 131 134 125
1 5 126 135 138 129 127 136 139 130
1 5 127 136 139 130 128 137 140 131
1 5 129 138 141 132 130 139 142 133
1 5 130 139 142 133 131 140 143 134
1 5 135 144 147 138 136 145 148 139
1 5 136 145 148 139 137 146 149 140
1 5 138 147 150 141 139 148 151 142
1 5 139 148 151 142 140 149 152 143
1 5 144 153 156 147 145 154 157 148
1 5 145 154 157 148 146 155 158 149
1 5 147 156 159 150 148 157 160 151
1 5 148 157 160 151 149 158 161 152
1 5 153 162 165 156 154 163 166 157
1 5 154 163 166 157 155 164 167 158
1 5 156 165 168 159 157 166 169 160
1 5 157 166 169 160 158 167 170 161
1 5 162 171 174 165 163 172 175 166
1 5 163 172 175 166 164 173 176 167
1 5 165 174 177 168 166 175 178 169
1 5 166 175 178 169 167 176 179 170
1 5 171 180 183 174 172 181 184 175
1 5 172 181 184 175 173 182 185 176
1 5 174 183 186 177 175 184 187 178
1 5 175 184 187 178 176 185 188 179

boundary
168
1 3 3 4 1 0
1 3 4 5 2 1
1 3 6 7 4 3
1 3 7 8 5 4
2 3 180 181 184 183
2 3 181 182 185 184
2 3 183 184 187 186
2 3 184 185 188 187
3 3 0 1 10 9
3 3 1 2 11 10
3 3 9 10 19 18
3 3 10 11 20 19
3 3 18 19 28 27
3 3 19 20 29 28
3 3 27 28 37 36
3 3 28 29 38 37
3 3 36 37 46 45
3 3 37 38 47 46
3 3 45 46 55 54
3 3 46 47 56 55
3 3 54 55 64 63
3 3 55 56 65 64
3 3 63 64 73 72
3 3 64 65 74 73
3 3 72 73 82 81
3 3 73 74 83 82
3 3 81 82 91 90
3 3 82 83 92 91
3 3 90 91 100 99
3 3 91 92 101 100
3 3 99 100 109 108
3 3 100 101 110 109
3 3 108 109 118 117
3 3 109 110 119 118
3 3 117 118 127 126
3 3 118 119 128 127
3 3 126 127 136 135
3 3 127 128 137 136
3 3 135 136 145 144
3 3 136 137 146 145
3 3 144 145 154 153
3 3 145 146 155 154
3 3 153 154 163 162
3 3 154 155 164 163
3 3 162 163 172 171
3 3 163 164 173 172
3 3 171 172 181 180
3 3 172 173 182 181
4 3 15 16 7 6
4 3 16 17 8 7
4 3 24 25 16 15
4 3 25 26 17 16
4 3 33 34 25 24
4 3 34 35 26 25
4 3 42 43 34 33
4 3 43 44 35 34
4 3 51 52 43 42
4 3 52 53 44 43
4 3 60 61 52 51
4 3 61 62 53 52
4 3 69 70 61 60
4 3 70 71 62 61
4 3 78 79 70 69
4 3 79 80 71 70
4 3 87 88 79 78
4 3 88 89 80 79
4 3 96 97 88 87
4 3 97 98 89 88
4 3 105 106 97 96
4 3 106 107 98 97
4 3 114 115 106 105
4 3 115 116 107 106
4 3 123 124 115 114
4 3 124 125 116 115
4 3 132 133 124 123
4 3 133 134 125 124
4 3 141 142 133 132
4 3 142 143 134 133
4 3 150 151 142 141
4 3 151 152 143 142
4 3 159 160 151 150
4 3 160 161 152 151
4 3 168 169 160 159
4 3 169 170 161 160
4 3 177 178 169 168
4 3 178 179 170 169
4 3 186 187 178 177
4 3 187 188 179 178
5 3 0 9 12 3
5 3 3 12 15 6
5 3 9 18 21 12
5 3 12 21 24 15
5 3 18 27 30 21
5 3 21 30 33 24
5 3 27 36 39 30
5 3 30 39 42 33
5 3 36 45 48 39
5 3 39 48 51 42
5 3 45 54 57 48
5 3 48 57 60 51
5 3 54 63 66 57
5 3 57 66 69 60
5 3 63 72 75 66
5 3 66 75 78 69
5 3 72 81 84 75
5 3 75 84 87 78
5 3 81 90 93 84
5 3 84 93 96 87
5 3 90 99 102 93
5 3 93 102 105 96
5 3 99 108 111 102
5 3 102 111 114 105
5 3 108 117 120 111
5 3 111 120 123 114
5 3 117 126 129 120
5 3 120 129 132 123
5 3 126 135 138 129
5 3 129 138 141 132
5 3 135 144 147 138
5 3 138 147 150 141
5 3 144 153 156 147
5 3 147 156 159 150
5 3 153 162 165 156
5 3 156 165 168 159
5 3 162 171 174 165
5 3 165 174 177 168
5 3 171 180 183 174
5 3 174 183 186 177
6 3 5 14 11 2
6 3 8 17 14 5
6 3 14 23 20 11
6 3 17 26 23 14
6 3 23 32 29 20
6 3 26 35 32 23
6 3 32 41 38 29
6 3 35 44 41 32
6 3 41 50 47 38
6 3 44 53 50 41
6 3 50 59 56 47
6 3 53 62 59 50
6 3 59 68 65 56
6 3 62 71 68 59
6 3 68 77 74 65
6 3 71 80 77 68
6 3 77 86 83 74
6 3 80 89 86 77
6 3 86 95 92 83
6 3 89 98 95 86
6 3 95 104 101 92
6 3 98 107 104 95
6 3 104 113 110 101
6 3 107 116 113 104
6 3 113 122 119 110
6 3 116 125 122 113
6 3 122 131 128 119
6 3 125 134 131 122
6 3 131 140 137 128
6 3 134 143 140 131
6 3 140 149 146 137
6 3 143 152 149 140
6 3 149 158 155 146
6 3 152 161 158 149
6 3 158 167 164 155
6 3 161 170 167 158
6 3 167 176 173 164
6 3 170 179 176 167
6 3 176 185 182 173
6 3 179 188 185 176

vertices
189
3
0. 0. 0.
0. 0. 0.05
0. 0. 0.1
0. 0.05 0.
0. 0.05 0.05
0. 0.05 0.1
0. 0.1 0.
0. 0.1 0.05
0. 0.1 0.1
0.05 0. 0.
0.05 0. 0.05
0.05 0. 0.1
0.05 0.05 0.
0.05 0.05 0.05
0.05 0.05 0.1
0.05 0.1 0.
0.05 0.1 0.05
0.05 0.1 0.1
0.1 0. 0.
0.1 0. 0.05
0.1 0. 0.1
0.1 0.05 0.
0.1 0.05 0.05
0.1 0.05 0.1
0.1 0.1 0.
0.1 0.1 0.05
0.1 0.1 0.1
0.15 0. 0.
0.15 0. 0.05
0.15 0. 0.1
0.15 0.05 0.
0.15 0.05 0.05
0.15 0.05 0.1
0.15 0.1 0.
0.15 0.1 0.05
0.15 0.1 0.1
0.2 0. 0.
0.2 0. 0.05
0.2 0. 0.1
0.2 0.05 0.
0.2 0.05 0.05
0.2 0.05 0.1
0.2 0.1 0.
0.2 0.1 0.05
0.2 0.1 0.1
0.25 0. 0.
0.25 0. 0.05
0.25 0. 0.1
0.25 0.05 0.
0.25 0.05 0.05
0.25 0.05 0.1
0.25 0.1 0.
0.25 0.1 0.05
0.25 0.1 0.1
0.3 0. 0.
0.3 0. 0.05
0.3 0. 0.1
0.3 0.05 0.
0.3 0.05 0.05
0.3 0.05 0.1
0.3 0.1 0.
0.3 0.1 0.05
0.3 0.1 0.1
0.35 0. 0.
0.35 0. 0.05
0.35 0. 0.1
0.35 0.05 0.
0.35 0.05 0.05
0.35 0.05 0.1
0.35 0.1 0.
0.35 0.1 0.05
0.35 0.1 0.1
0.4 0. 0.
0.4 0. 0.05
0.4 0. 0.1
0.4 0.05 0.
0.4 0.05 0.05
0.4 0.05 0.1
0.4 0.1 0.
0.4 0.1 0.05
0.4 0.1 0.1
0.45 0. 0.
0.45 0. 0.05
0.45 0. 0.1
0.45 0.05 0.
0.45 0.05 0.05
0.45 0.05 0.1
0.45 0.1 0.
0.45 0.1 0.05
0.45 0.1 0.1
0.5 0. 0.
0.5 0. 0.05
0.5 0. 0.1
0.5 0.05 0.
0.5 0.05 0.05
0.5 0.05 0.1
0.5 0.1 0.
0.5 0.1 0.05
0.5 0.1 0.1
0.55 0. 0.
0.55 0. 0.05
0.55 0. 0.1
0.55 0.05 0.
0.55 0.05 0.05
0.55 0.05 0.1
0.55 0.1 0.
0.55 0.1 0.05
0.55 0.1 0.1
0.6 0. 0.
0.6 0. 0.05
0.6 0. 0.1
0.6 0.05 0.
0.6 0.05 0.05
0.6 0.05 0.1
0.6 0.1 0.
0.6 0.1 0.05
0.6 0.1 0.1
0.65 0. 0.
0.65 0. 0.05
0.65 0. 0.1
0.65 0.05 0.
0.65 0.05 0.05
0.65 0.05 0.1
0.65 0.1 0.
0.65 0.1 0.05
0.65 0.1 0.1
0.7 0. 0.
0.7 0. 0.05
0.7 0. 0.1
0.7 0.05 0.
0.7 0.05 0.05
0.7 0.05 0.1
0.7 0.1 0.
0.7 0.1 0.05
0.7 0.1 0.1
0.75 0. 0.
0.75 0. 0.05
0.75 0. 0.1
0.75 0.05 0.
0.75 0.05 0.05
0.75 0.05 0.1
0.75 0.1 0.
0.75 0.1 0.05
0.75 0.1 0.1
0.8 0. 0.
0.8 0. 0.05
0.8 0. 0.1
0.8 0.05 0.
0.8 0.05 0.05
0.8 0.05 0.1
0.8 0.1 0.
0.8 0.1 0.05
0.8 0.1 0.1
0.85 0. 0.
0.85 0. 0.05
0.85 0. 0.1
0.85 0.05 0.
0.85 0.05 0.05
0.85 0.05 0.1
0.85 0.1 0.
0.85 0.1 0.05
0.85 0.1 0.1
0.9 0. 0.
0.9 0. 0.05
0.9 0. 0.1
0.9 0.05 0.
0.9 0.05 0.05
0.9 0.05 0.1
0.9 0.1 0.
0.9 0.1 0.05
0.9 0.1 0.1
0.95 0. 0.
0.95 0. 0.05
0.95 0. 0.1
0.95 0.05 0.
0.95 0.05 0.05
0.95 0.05 0.1
0.95 0.1 0.
0.95 0.1 0.05
0.95 0.1 0.1
1. 0. 0.
1. 0. 0.05
1. 0. 0.1
1. 0.05 0.
1. 0.05 0.05
1. 0.05 0.1
1. 0.1 0.
1. 0.1 0.05
1. 0.1 0.1
